<svg width="291" height="90" viewBox="0 0 291 90" fill="none" xmlns="http://www.w3.org/2000/svg">
<path d="M64.2224 71.8012H44.6018C42.8413 71.8012 41.4138 70.4023 41.4138 68.6771C41.4138 66.9519 42.8413 65.553 44.6018 65.553H64.2224C70.1876 65.553 75.0405 60.2664 75.0405 53.7648V36.2352C75.0405 29.737 70.1876 24.4469 64.2224 24.4469H21.1626C19.4021 24.4469 17.9746 23.048 17.9746 21.3228C17.9746 19.5976 19.4021 18.1987 21.1626 18.1987H64.2224C73.7015 18.1987 81.4166 26.2901 81.4166 36.2352V53.7648C81.4166 63.7098 73.7015 71.8012 64.2224 71.8012Z" fill="#055054"/>
<path d="M55.0846 41.067H27.1255C25.365 41.067 23.9375 39.6681 23.9375 37.9429C23.9375 36.2177 25.365 34.8188 27.1255 34.8188H55.0846C56.8451 34.8188 58.2727 36.2177 58.2727 37.9429C58.2727 39.6681 56.8451 41.067 55.0846 41.067Z" fill="#055054"/>
<path d="M55.0898 56.2018H36.7232C34.9627 56.2018 33.5352 54.8029 33.5352 53.0777C33.5352 51.3525 34.9627 49.9536 36.7232 49.9536H55.0898C56.8503 49.9536 58.2779 51.3525 58.2779 53.0777C58.2779 54.8029 56.8503 56.2018 55.0898 56.2018Z" fill="#055054"/>
<path d="M104.331 41.067H96.4673C94.7068 41.067 93.2793 39.6681 93.2793 37.9429C93.2793 36.2177 94.7068 34.8188 96.4673 34.8188H104.331C106.092 34.8188 107.519 36.2177 107.519 37.9429C107.519 39.6681 106.092 41.067 104.331 41.067Z" fill="#055054"/>
<path d="M110.988 71.8012H90.7544C88.9939 71.8012 87.5664 70.4023 87.5664 68.6771C87.5664 66.9519 88.9939 65.553 90.7544 65.553H110.988C116.312 65.553 120.648 60.2664 120.648 53.7648V36.2352C120.648 29.737 116.315 24.4469 110.988 24.4469H90.7544C88.9939 24.4469 87.5664 23.048 87.5664 21.3228C87.5664 19.5976 88.9939 18.1987 90.7544 18.1987H110.988C119.829 18.1987 127.024 26.2901 127.024 36.2352V53.7648C127.024 63.7098 119.829 71.8012 110.988 71.8012Z" fill="#055054"/>
<path d="M142.79 35.9333L142.66 31.3556H154.792C154.936 31.563 155.065 31.8741 155.18 32.2889C155.295 32.6741 155.353 33.0889 155.353 33.5333C155.353 34.3037 155.18 34.8963 154.835 35.3111C154.49 35.7259 154.015 35.9333 153.41 35.9333H142.79ZM146.632 31.3556L146.718 35.9333H134.587C134.443 35.6963 134.313 35.3852 134.198 35C134.083 34.6148 134.025 34.1852 134.025 33.7111C134.025 32.9111 134.198 32.3185 134.543 31.9333C134.889 31.5481 135.364 31.3556 135.968 31.3556H146.632ZM141.926 34.7333H147.366V58.2444C147.136 58.3333 146.776 58.4074 146.287 58.4667C145.826 58.5556 145.351 58.6 144.862 58.6C143.797 58.6 143.034 58.4074 142.574 58.0222C142.142 57.6074 141.926 56.9259 141.926 55.9778V34.7333Z" fill="#055054"/>
<path d="M162.693 42.3333V48.4222H157.383V41.8889C157.383 41.1481 157.556 40.5259 157.901 40.0222C158.247 39.4889 158.736 39 159.369 38.5556C160.233 38.0222 161.326 37.5778 162.65 37.2222C163.974 36.8667 165.399 36.6889 166.924 36.6889C169.63 36.6889 170.983 37.5481 170.983 39.2667C170.983 39.6815 170.925 40.0667 170.81 40.4222C170.695 40.7481 170.551 41.0444 170.378 41.3111C170.09 41.2519 169.731 41.2074 169.299 41.1778C168.867 41.1185 168.407 41.0889 167.917 41.0889C166.881 41.0889 165.903 41.2074 164.982 41.4444C164.089 41.6519 163.327 41.9481 162.693 42.3333ZM157.383 46.6L162.693 46.8667V58.2444C162.463 58.3333 162.132 58.4074 161.7 58.4667C161.269 58.5556 160.794 58.6 160.276 58.6C159.297 58.6 158.563 58.4222 158.074 58.0667C157.613 57.6815 157.383 57.0148 157.383 56.0667V46.6Z" fill="#055054"/>
<path d="M182.109 54.8222C182.973 54.8222 183.75 54.7333 184.441 54.5556C185.131 54.3778 185.635 54.1852 185.952 53.9778V48.9111L181.678 49.3556C180.497 49.4444 179.591 49.7111 178.958 50.1556C178.353 50.5704 178.051 51.1926 178.051 52.0222C178.051 52.8815 178.382 53.563 179.044 54.0667C179.706 54.5704 180.728 54.8222 182.109 54.8222ZM181.893 36.6889C184.714 36.6889 186.959 37.3111 188.628 38.5556C190.298 39.7704 191.132 41.6963 191.132 44.3333V54.5556C191.132 55.2667 190.96 55.8296 190.614 56.2444C190.298 56.6593 189.88 57.0296 189.362 57.3556C188.556 57.8296 187.535 58.2148 186.297 58.5111C185.059 58.837 183.663 59 182.109 59C179.231 59 176.972 58.437 175.331 57.3111C173.69 56.1556 172.87 54.4519 172.87 52.2C172.87 50.2148 173.475 48.7037 174.683 47.6667C175.921 46.6 177.706 45.9481 180.037 45.7111L185.909 45.0889V44.2889C185.909 43.1037 185.506 42.2444 184.7 41.7111C183.923 41.1778 182.814 40.9111 181.375 40.9111C180.253 40.9111 179.159 41.0593 178.094 41.3556C177.029 41.6519 176.079 42.0074 175.245 42.4222C174.957 42.1852 174.698 41.8593 174.468 41.4444C174.237 41.0296 174.122 40.6 174.122 40.1556C174.122 39.0889 174.698 38.3037 175.849 37.8C176.655 37.4148 177.59 37.1333 178.655 36.9556C179.749 36.7778 180.828 36.6889 181.893 36.6889Z" fill="#055054"/>
<path d="M215.46 44.6V48.9111H210.15V44.8222C210.15 43.5185 209.79 42.5704 209.07 41.9778C208.351 41.3556 207.387 41.0444 206.178 41.0444C205.285 41.0444 204.48 41.163 203.76 41.4C203.069 41.6074 202.45 41.8593 201.904 42.1556V48.9111H196.593V41.8C196.593 41.0889 196.737 40.5111 197.025 40.0667C197.313 39.5926 197.744 39.163 198.32 38.7778C199.184 38.1852 200.292 37.6963 201.644 37.3111C203.026 36.8963 204.551 36.6889 206.221 36.6889C209.128 36.6889 211.387 37.3556 212.999 38.6889C214.64 40.0222 215.46 41.9926 215.46 44.6ZM196.593 46.7333H201.904V58.2444C201.673 58.3333 201.342 58.4074 200.911 58.4667C200.479 58.5556 200.004 58.6 199.486 58.6C198.507 58.6 197.773 58.4222 197.284 58.0667C196.823 57.6815 196.593 57.0148 196.593 56.0667V46.7333ZM210.15 46.7333H215.46V58.2444C215.258 58.3333 214.927 58.4074 214.467 58.4667C214.035 58.5556 213.575 58.6 213.085 58.6C212.078 58.6 211.33 58.4222 210.84 58.0667C210.38 57.6815 210.15 57.0148 210.15 56.0667V46.7333Z" fill="#055054"/>
<path d="M236.848 52.3778C236.848 54.4519 236.1 56.0815 234.603 57.2667C233.107 58.4222 230.933 59 228.084 59C225.781 59 223.896 58.6444 222.428 57.9333C220.96 57.2222 220.227 56.2741 220.227 55.0889C220.227 54.5852 220.342 54.1259 220.572 53.7111C220.802 53.2667 221.104 52.9259 221.479 52.6889C222.284 53.2222 223.22 53.6963 224.285 54.1111C225.35 54.5259 226.559 54.7333 227.911 54.7333C230.358 54.7333 231.581 53.963 231.581 52.4222C231.581 51.7704 231.365 51.2519 230.933 50.8667C230.502 50.4519 229.84 50.1556 228.948 49.9778L226.487 49.3111C224.386 48.837 222.817 48.0963 221.781 47.0889C220.773 46.0815 220.27 44.7333 220.27 43.0444C220.27 41.1778 221.018 39.6519 222.515 38.4667C224.011 37.2519 226.084 36.6444 228.732 36.6444C230.113 36.6444 231.351 36.7926 232.445 37.0889C233.538 37.3556 234.387 37.7556 234.992 38.2889C235.625 38.8222 235.942 39.4593 235.942 40.2C235.942 40.7037 235.826 41.163 235.596 41.5778C235.395 41.963 235.121 42.2593 234.776 42.4667C234.431 42.2593 233.956 42.037 233.351 41.8C232.776 41.5333 232.114 41.3259 231.365 41.1778C230.617 41 229.869 40.9111 229.12 40.9111C227.998 40.9111 227.105 41.1037 226.443 41.4889C225.81 41.8444 225.494 42.363 225.494 43.0444C225.494 43.5481 225.681 43.9778 226.055 44.3333C226.429 44.6889 227.062 44.9704 227.955 45.1778L230.156 45.7111C232.488 46.2741 234.186 47.1037 235.251 48.2C236.316 49.2667 236.848 50.6593 236.848 52.3778Z" fill="#055054"/>
<path d="M241.889 40.5111H247.329V58.2444C247.098 58.3333 246.753 58.4074 246.292 58.4667C245.832 58.5556 245.343 58.6 244.824 58.6C243.788 58.6 243.04 58.4074 242.579 58.0222C242.119 57.6074 241.889 56.9259 241.889 55.9778V40.5111ZM247.329 47H241.889V31.3556C242.119 31.2963 242.479 31.2222 242.968 31.1333C243.457 31.0444 243.947 31 244.436 31C245.443 31 246.177 31.1926 246.638 31.5778C247.098 31.9333 247.329 32.6148 247.329 33.6222V47Z" fill="#055054"/>
<path d="M260.462 35.9333L260.332 31.3556H272.464C272.608 31.563 272.738 31.8741 272.853 32.2889C272.968 32.6741 273.025 33.0889 273.025 33.5333C273.025 34.3037 272.853 34.8963 272.507 35.3111C272.162 35.7259 271.687 35.9333 271.083 35.9333H260.462ZM264.304 31.3556L264.391 35.9333H252.259C252.115 35.6963 251.986 35.3852 251.87 35C251.755 34.6148 251.698 34.1852 251.698 33.7111C251.698 32.9111 251.87 32.3185 252.216 31.9333C252.561 31.5481 253.036 31.3556 253.641 31.3556H264.304ZM259.598 34.7333H265.038V58.2444C264.808 58.3333 264.448 58.4074 263.959 58.4667C263.498 58.5556 263.024 58.6 262.534 58.6C261.469 58.6 260.707 58.4074 260.246 58.0222C259.814 57.6074 259.598 56.9259 259.598 55.9778V34.7333Z" fill="#055054"/>
</svg>
